# xmcd
#
# Track frame offsets: 
#        183
#        11580
#        23375
#        32708
#        42518
#        50623
#        61758
#        74870
#        85338
#        95933
#        105153
#        116748
#        130393
#        141800
#        152348
#        163653
#        173028
#        182805
#        195978
#        206088
#        214905
#        224275
#        234743
#        246568
#        260610
#        273163
#
# Disc length: 3772 seconds
#
# Revision: 4
# Processed by: cddbd v1.5.2PL0 Copyright (c) Steve Scherf et al.
# Submitted via: ExactAudioCopyFreeDBPlugin 1.0
#
DISCID=800eba1a
DTITLE=Various Artist - Country Classics - 26 Great Country Songs - Vol.1
DYEAR=1900
DGENRE=Country
TTITLE0=Jean Sheppard - Seven Lonely Days
TTITLE1=Johnny Carver - If You're Thinkin' It's All Right
TTITLE2=George Hamilton IV - Truck Drivin' Man
TTITLE3=Dave Duley - Six Days On The Road
TTITLE4=Del Reeves - A Dime At A Time
TTITLE5=Jean Sheppard - Silver Threads And Golden Needles
TTITLE6=Johnny Carver - My Baby Used To Be That Way
TTITLE7=George Hamilton IV - Rose And The Baby Ruth
TTITLE8=Dave Duley - Jacknife
TTITLE9=Del Reeves - Girl On The Billboard
TTITLE10=Jean Sheppard - Virginia, You Have Taken My Man
TTITLE11=George Hamilton IV - Gentle On My Mind
TTITLE12=Dave Duley - Canadian Sunset
TTITLE13=Jean Sheppard - Many Happy Hangovers To You
TTITLE14=Johnny Carver - Tie A Yellow Ribbon
TTITLE15=George Hamilton IV - Abilene
TTITLE16=Dave Duley - Rollin' Rig
TTITLE17=Del Reeves - The Green, Green Grass Of Home
TTITLE18=Jean Sheppard - Playin' Second Fiddle To An Old Guitar
TTITLE19=Johnny Carver - Hold Me Tight
TTITLE20=George Hamilton IV - Back To Denver
TTITLE21=Dave Duley - I Wish You All The Heartaches You Can Stand
TTITLE22=Del Reeves - Be Glad
TTITLE23=Jean Sheppard - I Wish I Was A Teddy Bear
TTITLE24=Johnny Carver - I Want You
TTITLE25=Dave Duley - John Henry
EXTD=
EXTT0=
EXTT1=
EXTT2=
EXTT3=
EXTT4=
EXTT5=
EXTT6=
EXTT7=
EXTT8=
EXTT9=
EXTT10=
EXTT11=
EXTT12=
EXTT13=
EXTT14=
EXTT15=
EXTT16=
EXTT17=
EXTT18=
EXTT19=
EXTT20=
EXTT21=
EXTT22=
EXTT23=
EXTT24=
EXTT25=
PLAYORDER=
